<?xml version="1.0" standalone="no"?>
<!DOCTYPE svg PUBLIC "-//W3C//DTD SVG 20010904//EN"
 "http://www.w3.org/TR/2001/REC-SVG-20010904/DTD/svg10.dtd">
<svg version="1.0" xmlns="http://www.w3.org/2000/svg"
 width="235.000000pt" height="235.000000pt" viewBox="0 0 235.000000 235.000000"
 preserveAspectRatio="xMidYMid meet">
<metadata>
Created by potrace 1.11, written by Peter Selinger 2001-2013
</metadata>
<g transform="translate(0.000000,235.000000) scale(0.100000,-0.100000)"
fill="#000000" stroke="none">
<path d="M1675 1808 c-3 -13 -4 -351 -3 -753 3 -720 3 -731 24 -776 49 -105
143 -164 264 -164 121 0 215 59 264 164 21 45 21 55 24 799 l2 752 -285 0
-285 0 -5 -22z"/>
<path d="M305 1131 c-54 -14 -111 -49 -149 -91 -71 -79 -71 -80 -71 -420 0
-295 1 -306 22 -346 34 -63 66 -97 125 -129 48 -27 61 -30 148 -30 87 0 100 3
148 30 59 32 91 66 125 129 21 40 22 51 22 346 0 340 0 341 -71 420 -53 58
-118 89 -201 94 -37 3 -81 2 -98 -3z"/>
<path d="M1401 862 c-1 -10 -55 -12 -261 -10 -226 3 -260 1 -260 -12 0 -13 -1
-13 -10 0 -7 10 -10 -67 -8 -245 3 -249 4 -262 27 -312 26 -59 91 -124 148
-149 51 -23 175 -23 226 0 54 24 115 82 145 140 27 51 27 51 30 314 3 227 1
262 -11 262 -9 0 -18 6 -20 13 -4 9 -6 9 -6 -1z m-148 -39 c-68 -2 -178 -2
-245 0 -68 1 -13 3 122 3 135 0 190 -2 123 -3z"/>
</g>
</svg>
